<svg preserveAspectRatio="none" width="100%" height="100%" overflow="visible" style="display: block;" viewBox="0 0 21.3333 16" fill="none" xmlns="http://www.w3.org/2000/svg">
<g id="Language Container">
<g clip-path="url(#clip0_0_34)">
<g id="Vector">
<path d="M0 0.5H0.100035H2.37423H8.61823H9.63247H12.3668H13.3825H20.8209H21.9028H22V1.82806V3.14587V5.35131V6.56485V9.4064V10.5978V13.5081V14.143V15.5H21.9239H13.3351H12.3721H9.59636H8.63349H1.04458H0.877945H0V14.1375V12.8283V10.5966V9.4055V6.56466V5.35046V2.4519V1.83005V0.5Z" fill="#D80027"/>
<path d="M12.3665 9.40525L22 9.4064V10.5978V13.5081V14.143V15.5H21.9239H13.3351H12.3721C12.3587 15.4033 12.3662 15.0332 12.3662 14.9149L12.3665 9.40525Z" fill="#F1F0F0"/>
<path d="M13.385 11.9176C14.6683 12.6302 15.9436 13.3582 17.2103 14.1017L18.874 15.0498C19.1289 15.1946 19.3881 15.3323 19.6393 15.4833C20.3098 15.4646 21.0331 15.5314 21.7002 15.4424C21.7518 15.4356 21.7763 15.4168 21.8283 15.4419C21.8732 15.487 21.8824 15.4593 21.9239 15.5H13.3351C13.3515 15.4856 13.3676 15.4707 13.3834 15.4555C13.4036 14.2879 13.3677 13.0903 13.385 11.9176Z" fill="var(--fill-0, #0053B4)"/>
<path d="M13.3629 10.5902C14.1602 10.6109 15.0072 10.5684 15.8057 10.6119C15.8675 10.6153 16.1736 10.7935 16.2487 10.8383C18.1464 11.9702 20.1118 12.9964 22 14.143V15.5H21.9239C21.8824 15.4593 21.8732 15.487 21.8283 15.4419C21.7757 15.3891 21.3305 15.1425 21.239 15.0903L19.7459 14.2409C17.6296 13.0031 15.5019 11.7862 13.3629 10.5902Z" fill="#D80027"/>
<path d="M16.9085 10.5902C17.5124 10.609 18.152 10.5974 18.7597 10.5974L22 10.5978V13.5081C20.8615 12.8204 19.6665 12.1955 18.5175 11.5249C17.9814 11.2119 17.4478 10.8976 16.9085 10.5902Z" fill="var(--fill-0, #0053B4)"/>
<path d="M0 9.4055L6.35723 9.4052C7.4419 9.40516 8.54884 9.39275 9.63154 9.40636C9.63161 9.83518 9.66141 15.3742 9.6182 15.4786L9.59636 15.5H8.63349H1.04458H0.877945H0V14.1375V12.8283V10.5966V9.4055Z" fill="#F1F0F0"/>
<path d="M1.04458 15.5C1.26881 15.4332 1.34395 15.3835 1.55038 15.265L2.15862 14.9157L4.09412 13.7994L7.2762 11.9944L8.11359 11.5172C8.26644 11.4314 8.47513 11.3241 8.61817 11.2313L8.61833 14.2132C8.6183 14.3677 8.60317 15.4169 8.63349 15.5H1.04458Z" fill="var(--fill-0, #0053B4)"/>
<path d="M0 14.1375C0.177187 14.0578 0.367211 13.9224 0.538028 13.8233C0.801366 13.6704 1.06534 13.5178 1.33078 13.3689L4.9737 11.2971C5.14308 11.1997 6.08632 10.6226 6.19963 10.6154C6.98541 10.5654 7.82982 10.6238 8.6241 10.5915C8.37735 10.7441 8.11296 10.8761 7.86221 11.0234C6.99527 11.5394 6.12035 12.0411 5.23778 12.5283L2.36963 14.1737L0.895793 15.0149C0.694414 15.1301 0.353027 15.3115 0.171084 15.4335C0.418041 15.5132 0.750975 15.4508 0.877945 15.5H0V14.1375Z" fill="#D80027"/>
<path d="M0 10.5966C1.27767 10.5972 2.61968 10.6168 3.89293 10.5922C2.61803 11.366 1.26645 12.0511 0 12.8283V10.5966Z" fill="var(--fill-0, #0053B4)"/>
<path d="M12.3668 0.5H13.3825H20.8209H21.9028H22V1.82806V3.14587V5.35131V6.56485L12.3677 6.5656L12.3668 0.5Z" fill="#F1F0F0"/>
<path d="M13.3825 0.5H20.8209C20.4221 0.712506 19.9951 0.969935 19.5987 1.19503L16.7737 2.81504L14.1701 4.29434C13.9097 4.44255 13.6362 4.58617 13.3802 4.73765C13.398 3.33771 13.3829 1.90259 13.3825 0.5Z" fill="var(--fill-0, #0053B4)"/>
<path d="M21.9028 0.5H22V1.82806C21.6452 2.04258 21.2534 2.25147 20.8916 2.46059L17.7337 4.27142C17.2988 4.52306 16.8619 4.77103 16.4232 5.01531C16.3192 5.07411 15.9075 5.32024 15.835 5.32922C15.5814 5.36072 15.125 5.35689 14.8613 5.35065C14.3905 5.33952 13.8413 5.37065 13.3806 5.33898C13.7281 5.18394 14.1476 4.9295 14.4858 4.73623L16.2448 3.73054L18.7791 2.27678C19.8237 1.69085 20.8649 1.09858 21.9028 0.5Z" fill="#D80027"/>
<path d="M22 3.14587V5.35131L19.4663 5.35123C19.0585 5.35124 18.515 5.3692 18.1204 5.34468C18.4209 5.19103 18.7259 5.00341 19.0237 4.83868C20.0189 4.28015 21.011 3.71586 22 3.14587Z" fill="var(--fill-0, #0053B4)"/>
<path d="M0 0.5H0.100035H2.37423H8.61823H9.63247L9.63331 6.56464L0 6.56466V5.35046V2.4519V1.83005V0.5Z" fill="#F1F0F0"/>
<path d="M2.37423 0.5H8.61823L8.61743 4.05241C6.54751 2.84771 4.46634 1.66352 2.37423 0.5Z" fill="var(--fill-0, #0053B4)"/>
<path d="M0 0.5H0.100035L7.49404 4.7191C7.86208 4.92925 8.2488 5.15732 8.62641 5.34572C8.09613 5.35171 7.56581 5.35372 7.0355 5.35172C6.81497 5.35186 6.37866 5.36563 6.17194 5.33051C6.08723 5.31613 5.67004 5.06896 5.56207 5.00787C5.19569 4.80329 4.83062 4.59622 4.4669 4.38668L0 1.83005V0.5Z" fill="#D80027"/>
<path d="M0 2.4519C0.328826 2.63044 0.6976 2.86219 1.03194 3.05346L3.77165 4.60858C4.15549 4.82349 4.70298 5.16939 5.08364 5.34084C4.5283 5.36779 3.86724 5.35023 3.30218 5.35029L0 5.35046V2.4519Z" fill="var(--fill-0, #0053B4)"/>
</g>
</g>
</g>
<defs>
<clipPath id="clip0_0_34">
<path d="M0 4C0 1.79086 1.79086 0 4 0H17.3333C19.5425 0 21.3333 1.79086 21.3333 4V12C21.3333 14.2091 19.5425 16 17.3333 16H4C1.79087 16 0 14.2091 0 12V4Z" fill="white"/>
</clipPath>
</defs>
</svg>
