<svg preserveAspectRatio="none" width="100%" height="100%" overflow="visible" style="display: block;" viewBox="0 0 40.4598 64" fill="none" xmlns="http://www.w3.org/2000/svg">
<g id="Vector">
<path d="M12.9961 0.0432516C13.2946 0.219474 13.5578 0.58222 13.7758 0.873594C14.2718 1.53434 14.8272 2.141 15.1121 2.90953C15.6451 4.4455 16.3378 5.97338 16.9663 7.46704C17.3936 8.25434 17.3128 10.1806 18.573 10.0037C19.1905 9.87124 19.7903 9.63542 20.436 9.61114C23.136 9.50813 22.7744 7.86437 25.7839 7.76982C26.8198 7.64804 27.7468 7.23122 28.7375 6.91666C30.2269 6.38137 30.7169 7.20031 30.526 8.62849C30.2779 10.5927 28.3686 10.8929 27.01 11.848C26.6128 12.1386 26.2365 12.4616 25.7997 12.6934C24.585 13.2835 23.1933 13.4855 21.9977 14.1407C21.2976 14.5343 20.41 14.8007 20.0014 15.4883C19.6941 15.9868 19.2646 18.3237 19.6934 18.7751C20.1266 19.2029 21.1089 18.2118 21.5858 18.0338C22.0997 17.7681 22.6313 17.5176 23.0942 17.163C23.9268 16.475 24.6543 15.8595 25.7505 15.6678C26.5559 15.4861 27.2398 15.0527 28.0085 14.7492C28.5356 14.5472 29.0749 14.417 29.6164 14.2198C30.4009 13.9825 31.1552 13.424 31.9695 13.3593C32.5715 13.3953 32.631 14.2172 32.3332 14.6259C31.5194 15.6498 29.9372 15.3547 28.9391 16.1075C28.2398 16.5898 28.3319 17.5544 27.7412 18.1132C27.1756 18.6721 26.4575 19.0985 25.745 19.4377C25.2388 19.6635 24.6929 19.8092 24.1911 20.0417C23.4866 20.3732 22.809 20.8989 22.0476 21.2179C21.5403 21.474 19.7099 22.1307 20.3252 22.8841C20.5018 23.0618 20.9346 23.1479 21.2804 23.1486C22.447 23.2296 23.5178 22.6843 24.5956 22.319C25.7031 22.0582 26.9777 22.2984 27.971 21.645C28.405 21.3665 28.837 20.9777 29.3638 20.8276C29.7926 20.6856 30.2426 20.5925 30.6718 20.4494C31.4849 20.1701 32.2272 19.8479 33.084 19.8556C33.8071 19.8412 34.5373 19.8905 35.2561 19.7861C36.147 19.6591 37.0273 19.629 37.9226 19.6003C38.4637 19.5841 39.0588 19.5616 39.554 19.7886C40.3804 20.1139 40.7618 21.3573 40.1796 22.0265C39.7945 22.4471 39.1855 22.5254 38.6576 22.6726C38.0699 22.8113 37.4708 23.0912 36.8937 23.1821C36.3324 23.277 35.7784 23.1442 35.2296 23.0313C34.0002 22.741 32.7587 23.0287 31.6038 23.4716C29.852 23.9345 28.2956 25.0389 26.4792 25.2475C25.7266 25.3144 24.9638 25.267 24.223 25.4454C23.8133 25.5366 23.4132 25.6724 23.0197 25.8185C21.4257 26.4174 19.9794 27.2426 20.1567 29.1932C20.2565 31.0334 21.3846 31.281 22.9506 30.7122C23.4716 30.4801 23.8798 30.0294 24.4506 29.9109C27.1157 29.6589 28.3921 29.5004 30.1476 27.2945C30.3715 27.0862 30.6134 26.9416 30.8994 26.9118C31.4559 26.8486 32.0315 27.3114 32.1192 27.8673C32.1989 28.4184 31.7929 28.8584 31.3061 29.188C30.1993 29.958 28.7548 29.3911 27.9498 30.6729C26.8925 32.225 25.8621 31.3774 24.4488 32.1003C23.8034 32.4163 23.067 32.7036 22.5902 33.2588C22.1173 33.9133 22.8743 34.2091 23.5185 34.1182C23.8177 34.0851 24.1202 33.9843 24.3981 33.8467C26.7137 32.2202 29.6127 31.7486 32.3325 30.8726C33.1603 30.5338 34.1805 30.3616 34.4962 31.4418C34.8097 32.8442 32.8934 33.69 31.8186 34.0516C29.7529 34.8786 27.8327 36.1324 25.5398 36.1674C24.8184 36.1472 19.6589 37.6806 21.9514 38.3163C24.8162 38.9178 27.5125 36.2583 30.2856 36.6663C30.754 36.7225 31.4368 37.0136 31.2566 37.5742C31.1141 37.9701 30.6365 38.278 30.2727 38.5002C29.6667 38.8659 29.0841 39.1617 28.434 39.3813C26.5768 40.1068 21.2459 40.4883 20.6937 42.5934C20.4929 43.3789 21.0652 43.5691 21.584 44.0165C22.1001 44.4995 22.1775 45.2927 21.9492 45.9373C21.8068 46.3618 21.2337 47.517 22.1155 46.9401C22.6405 46.5586 23.0461 45.9593 23.5094 45.491C24.1022 44.8104 25.0354 44.6967 25.7582 44.207C29.424 41.0299 33.2642 38.175 37.3386 35.4618C37.9043 35.0968 38.6256 34.7455 39.2846 34.9831C40.1307 35.2911 40.3715 36.4529 39.9472 37.2177C39.7956 37.5065 39.5845 37.7493 39.3462 37.9782C34.219 42.713 27.097 45.048 22.3659 50.2383C21.4345 51.189 21.1761 52.5027 20.7154 53.7418C20.4882 54.34 20.1648 54.9095 19.6784 55.3355C18.8245 56.1022 17.4919 56.5408 16.7306 55.4566C15.8929 54.2889 16.2919 52.8074 16.1506 51.4925C15.8943 50.1931 14.3936 49.791 13.5948 48.8874C13.2402 48.539 12.9385 48.1428 12.6272 47.7561C11.926 46.8541 11.0109 46.1267 10.2723 45.2519C9.79174 44.654 9.29359 44.0698 8.6798 43.6033C7.69892 42.8988 6.95592 41.9761 6.2232 41.0398C5.58629 40.3298 4.53052 39.6337 4.64065 38.5749C4.90826 37.3314 6.3058 36.8075 7.36487 37.4837C8.1945 38.0131 8.89823 38.7695 9.38242 39.6275C9.73557 40.2532 9.92352 40.9935 10.3178 41.5817C10.802 42.3425 11.7285 42.5497 12.469 42.9691C12.9146 43.1972 13.3294 43.6405 13.828 43.5577C14.8074 43.2016 12.6081 39.779 12.241 39.1753C11.8196 38.4815 11.3622 37.5043 11.4301 36.6758C11.5259 36.174 12.0398 35.8664 12.4807 36.1729C13.0211 36.6457 13.274 37.2652 13.7799 37.937C14.2321 38.5146 14.474 39.037 15.0423 39.2647C15.6532 39.2338 15.1187 38.2515 14.9127 37.9668C13.9131 36.4102 12.4627 34.2415 11.1302 33.0914C10.7756 32.7353 10.6955 32.1672 10.5065 31.7173C10.0377 30.5139 8.21616 31.9046 7.62624 32.4156C6.5701 33.5031 4.72839 34.116 4.47509 32.044C4.14801 30.2855 4.88881 28.5431 6.77017 28.1844C7.44232 28.0498 7.76977 27.2871 6.95519 27.1462C6.51467 27.0943 6.0525 27.2742 5.61859 27.208C5.09364 27.1348 4.67405 26.7559 4.23501 26.4832C3.87012 26.2371 3.45236 26.1348 3.03387 25.9965C2.46891 25.7979 1.93369 25.5381 1.38047 25.3045C1.04825 25.1603 0.69951 25.0297 0.444378 24.7666C-0.151418 24.093 -0.0486313 22.9316 0.180069 22.0931C0.558545 21.0844 1.47555 20.0932 2.28243 19.3644C3.46961 18.4042 4.22693 19.6529 4.66047 20.6708C4.80144 20.9512 4.92184 21.2451 5.24599 21.3448C6.24486 21.5781 7.0264 22.2351 7.61706 23.0692C8.61997 24.515 9.45107 25.093 11.1272 25.257C11.9249 25.3623 12.8195 25.3674 13.4873 24.8844C14.0945 24.4646 14.3984 23.6563 14.2207 22.9389C14.0434 22.3164 13.3067 21.9504 12.7979 21.5678C11.8258 20.7945 11.0608 19.8593 9.78293 19.5701C7.29585 18.9778 7.43021 19.4744 5.23021 17.6997C4.52134 17.1666 3.78678 16.5416 3.78165 15.5939C3.74347 14.6189 4.7115 13.8114 5.64539 13.8423C6.95849 13.9637 8.02601 14.8864 9.17942 15.4397C9.68087 15.6502 10.2014 15.8179 10.7131 16.0008C11.3783 16.2292 12.0887 16.386 12.69 16.752C12.9634 16.9157 13.2285 17.1206 13.5251 17.2365C14.4025 17.5919 14.9208 16.9205 14.8239 16.0802C14.6976 14.0068 13.9983 14.5362 12.6896 13.5936C12.4014 13.3493 12.1558 13.0451 11.8856 12.7754C11.4539 12.3306 10.9367 11.9638 10.4217 11.6147C8.13687 9.94114 4.572 10.0769 2.88336 7.5568C2.2057 6.59218 1.47702 5.49879 1.67892 4.26192C1.81768 3.09201 2.73102 2.9993 3.70529 3.02248C4.91927 2.97355 6.06975 2.8481 6.96914 3.80978C7.44599 4.27443 7.72389 4.89691 8.1633 5.37996C8.7044 6.00134 9.51935 6.24452 10.1922 6.68415C10.7998 7.06162 11.2935 7.57078 11.8067 8.05862C12.0237 8.26133 12.2931 8.51996 12.5839 8.57183C13.5321 8.6009 13.071 6.96118 12.9087 6.39867C12.7465 5.83726 12.5857 5.26738 12.5725 4.67985C12.5479 4.03493 12.6554 3.37419 12.6187 2.73589C12.6309 2.08729 11.8739 -0.351501 12.9913 0.0428837L12.9957 0.045459L12.9961 0.0432516ZM16.3686 28.336C15.9832 28.4736 15.6836 28.8764 15.7545 29.2748C15.8639 29.9253 16.6249 29.9996 17.0455 29.5762C17.6711 28.9669 17.2676 28.0119 16.376 28.3334L16.3686 28.3363V28.336ZM14.5599 31.6161C14.1973 31.7302 13.8375 31.9601 13.7127 32.3258C13.6242 32.6599 13.8012 32.9586 14.05 33.2827C14.3279 33.623 14.6899 33.8835 15.068 34.1028C15.4656 34.3242 15.8569 34.588 16.2791 34.4283C16.7075 34.2334 16.8517 33.6554 16.8598 33.2117C16.9057 31.9149 15.6946 31.317 14.5677 31.6139L14.5603 31.6161H14.5599Z" fill="var(--fill-0, #EAE6DD)"/>
<path d="M28.1583 58.3931C28.5434 58.6878 28.8734 59.0524 29.2357 59.3464C29.6076 59.669 30.0532 59.9471 30.3399 60.3577C30.7613 61.0291 30.6754 61.979 30.0921 62.5397C29.8458 62.7946 29.5319 63.0382 29.2438 63.26C28.2368 64.0966 26.9516 64.3678 26.2578 63.3071C25.9337 62.7998 25.6499 62.1048 25.3863 61.5662C24.7905 60.4611 25.1272 58.6698 26.173 58.0028C26.8554 57.5713 27.5753 57.9141 28.1517 58.388L28.1583 58.3931Z" fill="var(--fill-0, #EAE6DD)"/>
<path d="M27.6924 49.1663C28.7148 49.7674 28.3514 51.1754 27.5823 51.9402C27.3929 52.1359 27.1495 52.314 26.8859 52.371C26.0262 52.5384 25.836 51.4461 25.8911 50.802C25.9227 50.288 26.0526 49.7829 26.3958 49.4518C26.7244 49.1273 27.2556 48.9448 27.6866 49.1633L27.6928 49.1663H27.6924Z" fill="var(--fill-0, #EAE6DD)"/>
</g>
</svg>
