<svg preserveAspectRatio="none" width="100%" height="100%" overflow="visible" style="display: block;" viewBox="0 0 18.1667 17.3333" fill="none" xmlns="http://www.w3.org/2000/svg">
<g id="Icon">
<path d="M12.4167 5.75C13.7427 5.75 15.0145 6.27678 15.9522 7.21447C16.8899 8.15215 17.4167 9.42392 17.4167 10.75V16.5833H14.0833V10.75C14.0833 10.308 13.9077 9.88405 13.5952 9.57149C13.2826 9.25893 12.8587 9.08333 12.4167 9.08333C11.9746 9.08333 11.5507 9.25893 11.2382 9.57149C10.9256 9.88405 10.75 10.308 10.75 10.75V16.5833H7.41667V10.75C7.41667 9.42392 7.94345 8.15215 8.88113 7.21447C9.81881 6.27678 11.0906 5.75 12.4167 5.75Z" stroke="var(--stroke-0, #EAE6DD)" stroke-width="1.5" stroke-linecap="round" stroke-linejoin="round"/>
<path d="M4.08333 6.58333H0.75V16.5833H4.08333V6.58333Z" stroke="var(--stroke-0, #EAE6DD)" stroke-width="1.5" stroke-linecap="round" stroke-linejoin="round"/>
<path d="M2.41667 4.08333C3.33714 4.08333 4.08333 3.33714 4.08333 2.41667C4.08333 1.49619 3.33714 0.75 2.41667 0.75C1.49619 0.75 0.75 1.49619 0.75 2.41667C0.75 3.33714 1.49619 4.08333 2.41667 4.08333Z" stroke="var(--stroke-0, #EAE6DD)" stroke-width="1.5" stroke-linecap="round" stroke-linejoin="round"/>
</g>
</svg>
