<svg preserveAspectRatio="none" width="100%" height="100%" overflow="visible" style="display: block;" viewBox="0 0 20 20" fill="none" xmlns="http://www.w3.org/2000/svg">
<g id="Vector">
<path d="M9.45586 0.0224835C10.3833 -0.0419007 11.3272 0.0330319 12.2321 0.233933C14.5435 0.750506 16.594 2.07121 18.015 3.95857C19.7429 6.22417 20.3908 9.25231 19.7684 12.0264C19.2556 14.3193 17.9449 16.3576 16.0682 17.7807C14.1775 19.2247 11.8269 19.9406 9.44854 19.7967C9.00055 19.7704 8.61712 19.6853 8.18007 19.6261C7.5701 19.5791 6.4214 19.131 5.85188 18.8882C5.74636 18.8656 5.47439 18.6568 5.38765 18.6511C5.03124 18.6278 4.33408 18.8544 4.00545 18.9392L1.67145 19.5502C1.22704 19.667 0.378215 19.8232 0 20C0.107064 19.7224 0.175275 19.3794 0.258065 19.0857L1.22512 15.5629C1.28974 15.3333 1.37962 15.0834 1.4185 14.8516C1.30147 14.5566 1.06512 14.1998 0.926868 13.8832C0.246448 12.3252 0.00544693 10.7476 0.145735 9.05764C0.315427 6.88422 1.20997 4.82966 2.68712 3.22068C4.42936 1.30459 6.86344 0.154499 9.45586 0.0224835ZM3.20513 14.5981C3.0362 15.2862 2.85107 15.9703 2.64983 16.6497C2.54851 17.004 2.47917 17.3125 2.35111 17.6675C3.07228 17.4526 3.79887 17.2562 4.53017 17.0783C4.82828 17.0039 5.2138 16.8869 5.51575 16.8506C5.83032 16.9677 6.19398 17.2152 6.50758 17.3635C7.25671 17.7178 8.05045 17.9498 8.86775 18.0719C9.28063 18.1468 9.61731 18.15 10.0326 18.1485C11.694 18.1549 13.3178 17.657 14.6877 16.7211C18.5242 14.0842 19.5089 8.94047 16.8103 5.12968C15.2118 2.87254 12.5615 1.54905 9.78487 1.66523C9.4319 1.68647 8.96584 1.71073 8.61909 1.76954C6.76388 2.10179 5.076 3.04894 3.8297 4.45712C2.33343 6.13651 1.64673 8.21955 1.78277 10.4575C1.85473 11.5815 2.15906 12.6785 2.67673 13.6798C2.7818 13.8825 3.15384 14.4499 3.20513 14.5981Z" fill="var(--fill-0, #EAE6DD)"/>
<path d="M6.29856 5.35974C6.55077 5.33102 6.96736 5.32022 7.21962 5.3741C7.34513 5.4009 7.38425 5.45478 7.44407 5.56204C7.64008 5.92157 7.78705 6.33644 7.9431 6.71456C8.02344 6.90925 8.42184 7.74646 8.37802 7.90414L8.37438 7.91676C8.24487 8.38045 7.7894 8.68691 7.56673 9.08188C7.45741 9.27579 7.90775 9.85594 8.03045 10.0255C8.76242 11.0372 9.76605 11.8262 10.9227 12.3036C11.0474 12.3551 11.2474 12.4098 11.3884 12.3586C11.6826 12.2641 12.3187 11.1894 12.4987 11.1287C12.8282 11.0176 14.5082 11.9688 14.8838 12.1306C14.9702 12.177 15.0474 12.2279 15.0642 12.3327C15.1178 12.6668 15.008 13.293 14.841 13.5746C14.8322 13.5901 14.823 13.6054 14.8136 13.6206C14.5246 14.086 13.8662 14.4514 13.3432 14.5747C13.0546 14.6426 12.7503 14.6731 12.4543 14.6497C11.438 14.5693 10.067 13.9601 9.19538 13.4227C7.70836 12.506 5.46671 10.0844 5.07231 8.38031C5.02605 8.18033 5.02026 7.96963 5.0182 7.7653C5.01251 7.19593 5.08217 6.70175 5.39262 6.21045C5.58842 5.90057 5.92075 5.44539 6.29856 5.35974Z" fill="var(--fill-0, #EAE6DD)"/>
</g>
</svg>
