<svg viewBox="0 0 100 100" xmlns="http://www.w3.org/2000/svg">
  <rect width="100" height="100" fill="#2e4a3a"/>
  <g transform="translate(38, 31) scale(1.04)">
    <path d="M7.70906 0.0256806C7.88609 0.130313 8.04222 0.345693 8.17157 0.518697C8.46575 0.911012 8.79522 1.27122 8.96419 1.72754C9.28037 2.63952 9.69128 3.54669 10.0641 4.43355C10.3175 4.90101 10.2696 6.04476 11.0172 5.93969C11.3834 5.86105 11.7393 5.72103 12.1223 5.70661C13.7239 5.64545 13.5094 4.66947 15.2945 4.61333C15.909 4.54103 16.4589 4.29353 17.0466 4.10677C17.93 3.78894 18.2207 4.27519 18.1075 5.12316C17.9603 6.28941 16.8277 6.46765 16.0218 7.03472C15.7862 7.20729 15.563 7.39908 15.3039 7.53669C14.5833 7.88707 13.7578 8.00699 13.0486 8.39603C12.6334 8.62976 12.1068 8.78791 11.8645 9.19617C11.6822 9.49216 11.4274 10.8797 11.6818 11.1477C11.9387 11.4017 12.5214 10.8133 12.8043 10.7075C13.1092 10.5498 13.4245 10.4011 13.699 10.1905C14.1929 9.78202 14.6245 9.41658 15.2747 9.30277C15.7525 9.19486 16.1581 8.93754 16.6141 8.75733C16.9268 8.63741 17.2467 8.56008 17.5679 8.443C18.0332 8.3021 18.4807 7.97051 18.9637 7.93207C19.3208 7.95347 19.3561 8.44147 19.1795 8.68415C18.6967 9.29207 17.7582 9.11688 17.1661 9.5638C16.7513 9.85018 16.806 10.4229 16.4556 10.7547C16.12 11.0865 15.6941 11.3397 15.2715 11.5411C14.9712 11.6752 14.6474 11.7617 14.3497 11.8998C13.9318 12.0966 13.5299 12.4087 13.0782 12.5981C12.7773 12.7502 11.6916 13.1401 12.0565 13.5874C12.1613 13.6929 12.418 13.7441 12.6231 13.7445C13.3151 13.7926 13.9503 13.4688 14.5897 13.2519C15.2466 13.097 16.0027 13.2397 16.5919 12.8517C16.8493 12.6864 17.1056 12.4555 17.4181 12.3664C17.6724 12.2821 17.9394 12.2268 18.1939 12.1418C18.6763 11.976 19.1166 11.7847 19.6248 11.7893C20.0538 11.7807 20.4869 11.81 20.9133 11.748C21.4417 11.6726 21.9639 11.6547 22.495 11.6377C22.816 11.628 23.169 11.6147 23.4627 11.7495C23.9529 11.9426 24.1791 12.6809 23.8338 13.0783C23.6054 13.3279 23.2441 13.3745 22.931 13.4618C22.5823 13.5442 22.227 13.7104 21.8847 13.7644C21.5517 13.8207 21.2231 13.7419 20.8976 13.6748C20.1683 13.5025 19.4319 13.6733 18.7468 13.9363C17.7077 14.2111 16.7844 14.8668 15.707 14.9907C15.2606 15.0304 14.8081 15.0023 14.3686 15.1082C14.1256 15.1624 13.8883 15.243 13.6548 15.3297C12.7094 15.6853 11.8514 16.1753 11.9566 17.3334C12.0158 18.4261 12.685 18.5731 13.6139 18.2354C13.9229 18.0975 14.165 17.83 14.5037 17.7596C16.0845 17.61 16.8417 17.5158 17.883 16.2061C18.0158 16.0824 18.1593 15.9966 18.3289 15.9789C18.6591 15.9413 19.0005 16.2161 19.0525 16.5462C19.0998 16.8734 18.859 17.1347 18.5702 17.3304C17.9137 17.7876 17.0568 17.451 16.5793 18.212C15.9522 19.1336 15.3409 18.6303 14.5026 19.0595C14.1197 19.2472 13.6829 19.4178 13.4001 19.7474C13.1196 20.136 13.5686 20.3116 13.9508 20.2577C14.1282 20.238 14.3077 20.1782 14.4725 20.0965C15.8461 19.1308 17.5657 18.8507 19.1791 18.3306C19.6701 18.1294 20.2752 18.0272 20.4625 18.6685C20.6485 19.5012 19.5118 20.0034 18.8742 20.2181C17.6489 20.7092 16.5098 21.4536 15.1497 21.4744C14.7218 21.4624 11.6613 22.3728 13.0212 22.7503C14.7205 23.1074 16.3199 21.5283 17.9649 21.7706C18.2427 21.804 18.6477 21.9768 18.5408 22.3097C18.4563 22.5447 18.173 22.7276 17.9572 22.8595C17.5977 23.0766 17.2521 23.2523 16.8665 23.3827C15.7649 23.8134 12.6027 24.04 12.2752 25.2899C12.156 25.7562 12.4955 25.8692 12.8032 26.1348C13.1094 26.4216 13.1553 26.8925 13.0199 27.2752C12.9354 27.5273 12.5955 28.2132 13.1185 27.8707C13.4299 27.6442 13.6705 27.2884 13.9453 27.0103C14.297 26.6062 14.8505 26.5387 15.2793 26.2479C17.4538 24.3615 19.7317 22.6664 22.1486 21.0554C22.4841 20.8387 22.912 20.6301 23.3029 20.7712C23.8048 20.9541 23.9477 21.6439 23.6959 22.098C23.606 22.2695 23.4808 22.4137 23.3395 22.5495C20.2981 25.3608 16.0734 26.7473 13.267 29.829C12.7146 30.3935 12.5613 31.1735 12.288 31.9092C12.1532 32.2644 11.9614 32.6025 11.6728 32.8555C11.1663 33.3107 10.3759 33.5711 9.92427 32.9273C9.42736 32.234 9.66406 31.3544 9.58022 30.5737C9.42823 29.8021 8.53805 29.5634 8.06422 29.0269C7.85386 28.82 7.67487 28.5848 7.49021 28.3552C7.0743 27.8196 6.53144 27.3877 6.09332 26.8683C5.80828 26.5133 5.51279 26.1665 5.1487 25.8895C4.56686 25.4712 4.12613 24.9233 3.69149 24.3674C3.31368 23.9458 2.68742 23.5325 2.75275 22.9039C2.91149 22.1655 3.74048 21.8545 4.3687 22.256C4.86083 22.5703 5.27826 23.0194 5.56548 23.5288C5.77496 23.9004 5.88645 24.3399 6.12032 24.6892C6.40754 25.1409 6.95715 25.2639 7.39636 25.5129C7.66072 25.6483 7.90678 25.9115 8.20249 25.8624C8.78346 25.6509 7.47889 23.6188 7.26114 23.2603C7.01115 22.8484 6.73983 22.2682 6.78012 21.7763C6.83695 21.4783 7.14181 21.2957 7.40333 21.4777C7.72386 21.7584 7.8739 22.1262 8.17396 22.5251C8.44224 22.868 8.58574 23.1782 8.92282 23.3134C9.28516 23.2951 8.96811 22.7118 8.84595 22.5428C8.25301 21.6186 7.39266 20.3309 6.60221 19.648C6.39186 19.4366 6.34439 19.0993 6.23225 18.8322C5.95417 18.1176 4.87368 18.9433 4.52375 19.2468C3.89727 19.8925 2.80479 20.2564 2.65454 19.0261C2.46052 17.982 2.89995 16.9475 4.01594 16.7345C4.41465 16.6545 4.60889 16.2017 4.12569 16.1181C3.86438 16.0873 3.59023 16.1941 3.33285 16.1548C3.02146 16.1113 2.77256 15.8863 2.51213 15.7244C2.29568 15.5783 2.04788 15.5176 1.79964 15.4354C1.46451 15.3175 1.14703 15.1633 0.818871 15.0246C0.621803 14.9389 0.414936 14.8614 0.263597 14.7052C-0.0898184 14.3052 -0.0288472 13.6156 0.106814 13.1178C0.331319 12.5188 0.875269 11.9304 1.35389 11.4976C2.05811 10.9275 2.50734 11.6689 2.76451 12.2733C2.84812 12.4398 2.91955 12.6143 3.11183 12.6735C3.70434 12.812 4.16793 13.2021 4.5183 13.6973C5.11321 14.5558 5.6062 14.8989 6.60047 14.9964C7.07365 15.0588 7.60432 15.0619 8.00041 14.7751C8.36058 14.5259 8.54088 14.0459 8.43549 13.62C8.33031 13.2504 7.89328 13.033 7.59147 12.8059C7.01486 12.3467 6.56106 11.7914 5.80305 11.6197C4.32777 11.2681 4.40746 11.563 3.10246 10.5092C2.68198 10.1927 2.24625 9.82156 2.2432 9.25886C2.22056 8.68 2.79478 8.20053 3.34874 8.21888C4.12765 8.29096 4.76088 8.83881 5.44506 9.16734C5.74252 9.29228 6.05129 9.39189 6.35484 9.50046C6.74941 9.63611 7.17077 9.72916 7.52745 9.94651C7.68968 10.0437 7.8469 10.1654 8.02284 10.2342C8.54328 10.4452 8.85074 10.0466 8.79326 9.54764C8.71835 8.31652 8.30353 8.63085 7.52723 8.07121C7.3563 7.92617 7.21062 7.74552 7.05035 7.5854C6.79427 7.32131 6.48746 7.10353 6.18195 6.89623C4.82664 5.90255 2.71203 5.98316 1.71036 4.48685C1.30838 3.91411 0.87614 3.26491 0.995905 2.53052C1.07822 1.83588 1.61999 1.78084 2.19791 1.7946C2.91802 1.76554 3.60047 1.69106 4.13397 2.26206C4.41683 2.53794 4.58167 2.90754 4.84232 3.19435C5.16329 3.56329 5.64671 3.70768 6.04585 3.96872C6.40623 4.19283 6.69911 4.49515 7.00353 4.7848C7.13223 4.90516 7.29206 5.05873 7.46452 5.08953C8.02698 5.10678 7.75348 4.1332 7.65723 3.79921C7.56098 3.46587 7.46561 3.12751 7.45777 2.77866C7.44318 2.39574 7.50698 2.00342 7.48521 1.62443C7.49239 1.23933 7.04338 -0.208704 7.70623 0.0254622Z" fill="#EAE6DD"/>
    <path d="M16.703 34.6709C16.9314 34.8459 17.1272 35.0624 17.3421 35.2369C17.5627 35.4285 17.827 35.5936 17.9971 35.8374C18.2471 36.236 18.1961 36.8 17.8501 37.1329C17.704 37.2843 17.5178 37.4289 17.3469 37.5606C16.7496 38.0574 15.9872 38.2184 15.5757 37.5886C15.3834 37.2874 15.2151 36.8748 15.0587 36.555C14.7053 35.8988 14.905 34.8352 15.5254 34.4392C15.9302 34.1829 16.3572 34.3865 16.6991 34.6679Z" fill="#EAE6DD"/>
    <path d="M16.4266 29.1925C17.0331 29.5494 16.8175 30.3854 16.3613 30.8395C16.249 30.9557 16.1046 31.0614 15.9482 31.0953C15.4383 31.1947 15.3255 30.5461 15.3581 30.1637C15.3768 29.8585 15.4539 29.5586 15.6575 29.362C15.8524 29.1693 16.1675 29.061 16.4232 29.1907Z" fill="#EAE6DD"/>
  </g>
</svg>
